<?xml version="1.0"?>
<svg width="360" height="360" xmlns="http://www.w3.org/2000/svg" xmlns:svg="http://www.w3.org/2000/svg" xmlns:se="http://svg-edit.googlecode.com" data-name="Layer 1">
 <defs>
  <style>.cls-1 {
        fill: #69cbdf;
      }
      .cls-1, .cls-2, .cls-3, .cls-4, .cls-5 {
        stroke: #59595b;
        stroke-linecap: round;
        stroke-linejoin: round;
        stroke-width: 4.08px;
      }

      .cls-2, .cls-5 {
        fill: #f1592b;
      }

      .cls-3 {
        fill: #fff;
      }

      .cls-4 {
        fill: none;
      }

      .cls-5 {
        fill-rule: evenodd;
      }</style>
 </defs>
 <g class="layer">
  <title>Layer 1</title>
  <g class="layer" id="svg_1">
   <g id="tudo">
    <g id="svg_2">
     <path class="cls-1" d="m85.047178,214.468859l0,129.347399a2.198876,2.198876 0 0 1 -2.198876,2.198876l0,0a2.198876,2.198876 0 0 1 -2.198876,-2.198876l0,-138.172618a11.009238,11.009238 0 0 0 4.397752,8.825219z" id="svg_3"/>
     <path class="cls-1" d="m274.923097,214.468859l0,129.347399a2.198876,2.198876 0 0 0 2.198876,2.198876l0,0a2.213733,2.213733 0 0 0 2.213733,-2.198876l0,-138.172618a11.009238,11.009238 0 0 1 -4.412609,8.825219z" id="svg_4"/>
     <path class="cls-2" d="m98.31472,155.500352l-17.724724,0l0,50.143289a11.009238,11.009238 0 0 0 4.457181,8.825219a11.202382,11.202382 0 0 0 4.457181,1.990874a11.737244,11.737244 0 0 0 2.198876,0.222859a11.885817,11.885817 0 0 0 2.213733,-0.222859a11.202382,11.202382 0 0 0 4.457181,-1.990874a11.009238,11.009238 0 0 0 4.457181,-8.825219l0,-50.143289l-4.51661,0z" id="svg_5"/>
     <path class="cls-2" d="m274.923097,155.500352l-17.665295,0l0,50.143289a11.053809,11.053809 0 0 0 8.825219,10.816093a12.019532,12.019532 0 0 0 2.213733,0.222859a11.737244,11.737244 0 0 0 2.198876,-0.222859a11.038952,11.038952 0 0 0 8.914362,-10.816093l0,-50.143289l-4.486896,0z" id="svg_6"/>
     <path class="cls-3" d="m120.392625,155.500352l-17.680152,0l0,50.143289a11.038952,11.038952 0 0 0 8.914362,10.816093a11.737244,11.737244 0 0 0 2.198876,0.222859a12.019532,12.019532 0 0 0 2.213733,-0.222859a11.202382,11.202382 0 0 0 4.457181,-1.990874a11.038952,11.038952 0 0 0 4.457181,-8.825219l0,-50.143289l-4.561182,0z" id="svg_7"/>
     <path class="cls-2" d="m142.455672,155.500352l-17.665295,0l0,50.143289a11.038952,11.038952 0 0 0 8.840076,10.816093a11.737244,11.737244 0 0 0 2.198876,0.222859a12.019532,12.019532 0 0 0 2.213733,-0.222859a11.053809,11.053809 0 0 0 8.825219,-10.816093l0,-50.143289l-4.412609,0z" id="svg_8"/>
     <path class="cls-3" d="m164.533576,155.500352l-17.665295,0l0,50.143289a11.038952,11.038952 0 0 0 8.840076,10.816093a11.737244,11.737244 0 0 0 2.198876,0.222859a12.019532,12.019532 0 0 0 2.213733,-0.222859a11.053809,11.053809 0 0 0 8.825219,-10.816093l0,-50.143289l-4.412609,0z" id="svg_9"/>
     <path class="cls-2" d="m186.61148,155.500352l-17.665295,0l0,50.143289a11.038952,11.038952 0 0 0 8.840076,10.816093a11.737244,11.737244 0 0 0 2.198876,0.222859a12.019532,12.019532 0 0 0 2.213733,-0.222859a11.053809,11.053809 0 0 0 8.825219,-10.816093l0,-50.143289l-4.412609,0z" id="svg_10"/>
     <polygon class="cls-2" id="svg_11" points="80.63456726074219,272.41222858428955 80.63456726074219,276.82482624053955 80.63456726074219,281.2522859573364 80.63456726074219,285.6797761917114 80.63456726074219,290.1072664260864 80.63456726074219,294.5198030471802 279.335693359375,294.5198030471802 279.335693359375,290.1072664260864 279.335693359375,285.6797761917114 279.335693359375,281.2522859573364 279.335693359375,276.82482624053955 279.335693359375,272.41222858428955 80.63456726074219,272.41222858428955 "/>
     <polygon class="cls-3" id="svg_12" points="80.63456726074219,294.5198030471802 80.63456726074219,298.9472932815552 80.63456726074219,303.3747835159302 80.63456726074219,307.7873811721802 80.63456726074219,312.2148103713989 80.63456726074219,316.6423006057739 279.335693359375,316.6423006057739 279.335693359375,312.2148103713989 279.335693359375,307.7873811721802 279.335693359375,303.3747835159302 279.335693359375,298.9472932815552 279.335693359375,294.5198030471802 80.63456726074219,294.5198030471802 "/>
     <polygon class="cls-2" id="svg_13" points="80.63456726074219,316.6423006057739 80.63456726074219,321.06982135772705 80.63456726074219,325.4972200393677 80.63456726074219,329.9098482131958 80.63456726074219,334.3373384475708 80.63456726074219,338.76476764678955 279.335693359375,338.76476764678955 279.335693359375,334.3373384475708 279.335693359375,329.9098482131958 279.335693359375,325.4972200393677 279.335693359375,321.06982135772705 279.335693359375,316.6423006057739 80.63456726074219,316.6423006057739 "/>
     <path class="cls-3" d="m208.689384,155.500352l-17.665295,0l0,50.143289a11.038952,11.038952 0 0 0 8.840076,10.816093a10.964666,10.964666 0 0 0 4.457181,0a11.038952,11.038952 0 0 0 8.840076,-10.816093l0,-50.143289l-4.472038,0z" id="svg_14"/>
     <path class="cls-2" d="m230.767289,155.500352l-17.665295,0l0,50.143289a11.038952,11.038952 0 0 0 8.840076,10.816093a10.964666,10.964666 0 0 0 4.457181,0a11.038952,11.038952 0 0 0 8.914362,-10.816093l0,-50.143289l-4.546325,0z" id="svg_15"/>
     <path class="cls-3" d="m252.845193,155.500352l-17.665295,0l0,50.143289a11.038952,11.038952 0 0 0 8.840076,10.816093a10.964666,10.964666 0 0 0 4.457181,0a11.038952,11.038952 0 0 0 8.840076,-10.816093l0,-50.143289l-4.472038,0z" id="svg_16"/>
    </g>
    <g id="svg_17">
     <line class="cls-4" id="svg_18" x1="128.712696" x2="114.553717" y1="79.416269" y2="79.416269"/>
     <path class="cls-5" d="m205.747645,62.538409l0,0a16.209282,16.209282 0 0 0 -22.895054,0l0,0l-2.867453,2.867453l-2.822881,-2.867453l0,0a16.209282,16.209282 0 0 0 -22.895054,0l0,0a16.179568,16.179568 0 0 0 0,22.895054l0,0l2.852596,2.867453l20.696178,20.696178a3.134884,3.134884 0 0 0 4.457181,0l20.696178,-20.696178l2.867453,-2.867453l0,0a16.209282,16.209282 0 0 0 -0.089144,-22.895054z" id="svg_19"/>
     <line class="cls-4" id="svg_20" x1="179.985137" x2="179.985137" y1="28.143842" y2="13.984863"/>
     <line class="cls-4" id="svg_21" x1="216.236878" x2="226.265536" y1="43.164543" y2="33.150728"/>
     <line class="cls-4" id="svg_22" x1="231.257579" x2="245.431415" y1="79.416269" y2="79.416269"/>
     <line class="cls-4" id="svg_23" x1="143.733397" x2="133.719596" y1="43.164543" y2="33.150728"/>
    </g>
   </g>
  </g>
 </g>
</svg>